<mxfile host="app.diagrams.net" modified="2020-08-14T02:15:06.020Z" agent="5.0 (Macintosh; Intel Mac OS X 10_15_6) AppleWebKit/537.36 (KHTML, like Gecko) Chrome/84.0.4147.105 Safari/537.36" etag="gl1SYb_HNmKvYB8oHAQk" version="13.6.2" type="github">
  <diagram id="C5RBs43oDa-KdzZeNtuy" name="Page-1">
    <mxGraphModel dx="2037" dy="1116" grid="1" gridSize="10" guides="1" tooltips="1" connect="1" arrows="1" fold="1" page="1" pageScale="1" pageWidth="3300" pageHeight="4681" math="0" shadow="0">
      <root>
        <mxCell id="WIyWlLk6GJQsqaUBKTNV-0" />
        <mxCell id="WIyWlLk6GJQsqaUBKTNV-1" parent="WIyWlLk6GJQsqaUBKTNV-0" />
        <mxCell id="04z2D7Yg83SwF_cILFOy-170" value="功能列表" style="swimlane;fontStyle=0;align=center;verticalAlign=middle;childLayout=stackLayout;horizontal=1;startSize=30;horizontalStack=0;resizeParent=1;resizeLast=0;collapsible=1;marginBottom=0;rounded=0;shadow=0;strokeWidth=1;fontSize=20;" vertex="1" parent="WIyWlLk6GJQsqaUBKTNV-1">
          <mxGeometry x="940" y="1580" width="250" height="300" as="geometry">
            <mxRectangle x="1500" y="2110" width="160" height="26" as="alternateBounds" />
          </mxGeometry>
        </mxCell>
        <mxCell id="04z2D7Yg83SwF_cILFOy-182" value="notifications" style="rounded=0;whiteSpace=wrap;html=1;strokeColor=#000000;fillColor=none;gradientColor=none;fontSize=20;" vertex="1" parent="04z2D7Yg83SwF_cILFOy-170">
          <mxGeometry y="30" width="250" height="30" as="geometry" />
        </mxCell>
        <mxCell id="04z2D7Yg83SwF_cILFOy-178" value="inbox" style="rounded=0;whiteSpace=wrap;html=1;strokeColor=#000000;fillColor=none;gradientColor=none;fontSize=20;" vertex="1" parent="04z2D7Yg83SwF_cILFOy-170">
          <mxGeometry y="60" width="250" height="30" as="geometry" />
        </mxCell>
        <mxCell id="04z2D7Yg83SwF_cILFOy-181" value="my week" style="rounded=0;whiteSpace=wrap;html=1;strokeColor=#000000;fillColor=none;gradientColor=none;fontSize=20;" vertex="1" parent="04z2D7Yg83SwF_cILFOy-170">
          <mxGeometry y="90" width="250" height="30" as="geometry" />
        </mxCell>
        <mxCell id="04z2D7Yg83SwF_cILFOy-177" value="invite members" style="rounded=0;whiteSpace=wrap;html=1;strokeColor=#000000;fillColor=none;gradientColor=none;fontSize=20;" vertex="1" parent="04z2D7Yg83SwF_cILFOy-170">
          <mxGeometry y="120" width="250" height="30" as="geometry" />
        </mxCell>
        <mxCell id="04z2D7Yg83SwF_cILFOy-180" value="search everything" style="rounded=0;whiteSpace=wrap;html=1;strokeColor=#000000;fillColor=none;gradientColor=none;fontSize=20;" vertex="1" parent="04z2D7Yg83SwF_cILFOy-170">
          <mxGeometry y="150" width="250" height="30" as="geometry" />
        </mxCell>
        <mxCell id="04z2D7Yg83SwF_cILFOy-179" value="help" style="rounded=0;whiteSpace=wrap;html=1;strokeColor=#000000;fillColor=none;gradientColor=none;fontSize=20;" vertex="1" parent="04z2D7Yg83SwF_cILFOy-170">
          <mxGeometry y="180" width="250" height="30" as="geometry" />
        </mxCell>
        <mxCell id="04z2D7Yg83SwF_cILFOy-185" value="個人帳號資料" style="rounded=0;whiteSpace=wrap;html=1;strokeColor=#000000;fillColor=none;gradientColor=none;fontSize=20;" vertex="1" parent="04z2D7Yg83SwF_cILFOy-170">
          <mxGeometry y="210" width="250" height="30" as="geometry" />
        </mxCell>
        <mxCell id="04z2D7Yg83SwF_cILFOy-187" value="人物誌" style="rounded=0;whiteSpace=wrap;html=1;strokeColor=#000000;fillColor=none;gradientColor=none;fontSize=20;" vertex="1" parent="04z2D7Yg83SwF_cILFOy-170">
          <mxGeometry y="240" width="250" height="30" as="geometry" />
        </mxCell>
        <mxCell id="04z2D7Yg83SwF_cILFOy-186" value="user story&lt;br&gt;" style="rounded=0;whiteSpace=wrap;html=1;strokeColor=#000000;fillColor=none;gradientColor=none;fontSize=20;" vertex="1" parent="04z2D7Yg83SwF_cILFOy-170">
          <mxGeometry y="270" width="250" height="30" as="geometry" />
        </mxCell>
        <mxCell id="04z2D7Yg83SwF_cILFOy-157" value="index" style="swimlane;fontStyle=0;align=center;verticalAlign=middle;childLayout=stackLayout;horizontal=1;startSize=30;horizontalStack=0;resizeParent=1;resizeLast=0;collapsible=1;marginBottom=0;rounded=0;shadow=0;strokeWidth=1;fontSize=20;" vertex="1" parent="WIyWlLk6GJQsqaUBKTNV-1">
          <mxGeometry x="1230" y="1870" width="250" height="180" as="geometry">
            <mxRectangle x="1500" y="2110" width="160" height="26" as="alternateBounds" />
          </mxGeometry>
        </mxCell>
        <mxCell id="04z2D7Yg83SwF_cILFOy-188" value="功能列表" style="rounded=0;whiteSpace=wrap;html=1;strokeColor=#000000;fillColor=none;gradientColor=none;fontSize=20;" vertex="1" parent="04z2D7Yg83SwF_cILFOy-157">
          <mxGeometry y="30" width="250" height="30" as="geometry" />
        </mxCell>
        <mxCell id="04z2D7Yg83SwF_cILFOy-161" value="workspaces" style="rounded=0;whiteSpace=wrap;html=1;strokeColor=#000000;fillColor=none;gradientColor=none;fontSize=20;" vertex="1" parent="04z2D7Yg83SwF_cILFOy-157">
          <mxGeometry y="60" width="250" height="30" as="geometry" />
        </mxCell>
        <mxCell id="04z2D7Yg83SwF_cILFOy-160" value="inbox" style="rounded=0;whiteSpace=wrap;html=1;strokeColor=#000000;fillColor=none;gradientColor=none;fontSize=20;" vertex="1" parent="04z2D7Yg83SwF_cILFOy-157">
          <mxGeometry y="90" width="250" height="30" as="geometry" />
        </mxCell>
        <mxCell id="04z2D7Yg83SwF_cILFOy-164" value="&lt;h2 style=&quot;box-sizing: border-box ; font-family: &amp;#34;roboto&amp;#34; , &amp;#34;helvetica&amp;#34; , &amp;#34;arial&amp;#34; , sans-serif ; font-weight: 500 ; line-height: inherit ; color: rgb(50 , 51 , 56) ; margin: 0px 0px 0px 15px ; font-size: 18px ; padding: 0px ; border: 0px ; font-stretch: inherit ; vertical-align: baseline ; text-align: left ; background-color: rgb(255 , 255 , 255)&quot;&gt;Complete Your Profile&lt;/h2&gt;" style="rounded=0;whiteSpace=wrap;html=1;strokeColor=#000000;fillColor=none;gradientColor=none;fontSize=20;" vertex="1" parent="04z2D7Yg83SwF_cILFOy-157">
          <mxGeometry y="120" width="250" height="30" as="geometry" />
        </mxCell>
        <mxCell id="04z2D7Yg83SwF_cILFOy-165" value="&lt;span style=&quot;color: rgb(50 , 51 , 56) ; font-family: &amp;#34;roboto&amp;#34; , &amp;#34;helvetica&amp;#34; , &amp;#34;arial&amp;#34; , sans-serif ; background-color: rgb(255 , 255 , 255)&quot;&gt;Inbox View Options&lt;/span&gt;" style="rounded=0;whiteSpace=wrap;html=1;strokeColor=#000000;fillColor=none;gradientColor=none;fontSize=20;" vertex="1" parent="04z2D7Yg83SwF_cILFOy-157">
          <mxGeometry y="150" width="250" height="30" as="geometry" />
        </mxCell>
        <mxCell id="04z2D7Yg83SwF_cILFOy-169" value="inbox" style="swimlane;fontStyle=0;align=center;verticalAlign=middle;childLayout=stackLayout;horizontal=1;startSize=30;horizontalStack=0;resizeParent=1;resizeLast=0;collapsible=1;marginBottom=0;rounded=0;shadow=0;strokeWidth=1;fontSize=20;" vertex="1" parent="WIyWlLk6GJQsqaUBKTNV-1">
          <mxGeometry x="940" y="1940" width="250" height="90" as="geometry">
            <mxRectangle x="950" y="1970" width="160" height="26" as="alternateBounds" />
          </mxGeometry>
        </mxCell>
        <mxCell id="04z2D7Yg83SwF_cILFOy-183" value="&lt;span&gt;&lt;font style=&quot;font-size: 16px&quot;&gt;內容：做完的項目會寄給組員&lt;/font&gt;&lt;/span&gt;" style="rounded=0;whiteSpace=wrap;html=1;strokeColor=#000000;fillColor=none;gradientColor=none;fontSize=20;" vertex="1" parent="04z2D7Yg83SwF_cILFOy-169">
          <mxGeometry y="30" width="250" height="30" as="geometry" />
        </mxCell>
        <mxCell id="04z2D7Yg83SwF_cILFOy-184" value="&lt;span&gt;&lt;font style=&quot;font-size: 16px&quot;&gt;每個項目可以按讚留言&lt;/font&gt;&lt;/span&gt;" style="rounded=0;whiteSpace=wrap;html=1;strokeColor=#000000;fillColor=none;gradientColor=none;fontSize=20;" vertex="1" parent="04z2D7Yg83SwF_cILFOy-169">
          <mxGeometry y="60" width="250" height="30" as="geometry" />
        </mxCell>
        <mxCell id="zkfFHV4jXpPFQw0GAbJ--0" value="使用者登入頁面" style="swimlane;fontStyle=2;align=center;verticalAlign=top;childLayout=stackLayout;horizontal=1;startSize=30;horizontalStack=0;resizeParent=1;resizeLast=0;collapsible=1;marginBottom=0;rounded=0;shadow=0;strokeWidth=1;" parent="WIyWlLk6GJQsqaUBKTNV-1" vertex="1">
          <mxGeometry x="1310" y="2450" width="560" height="191" as="geometry">
            <mxRectangle x="1500" y="2110" width="160" height="26" as="alternateBounds" />
          </mxGeometry>
        </mxCell>
        <mxCell id="04z2D7Yg83SwF_cILFOy-8" value="Email--輸入框" style="rounded=0;whiteSpace=wrap;html=1;" vertex="1" parent="zkfFHV4jXpPFQw0GAbJ--0">
          <mxGeometry y="30" width="560" height="20" as="geometry" />
        </mxCell>
        <mxCell id="04z2D7Yg83SwF_cILFOy-9" value="password--輸入框" style="rounded=0;whiteSpace=wrap;html=1;" vertex="1" parent="zkfFHV4jXpPFQw0GAbJ--0">
          <mxGeometry y="50" width="560" height="20" as="geometry" />
        </mxCell>
        <mxCell id="04z2D7Yg83SwF_cILFOy-10" value="忘記密碼--連結視窗" style="rounded=0;whiteSpace=wrap;html=1;" vertex="1" parent="zkfFHV4jXpPFQw0GAbJ--0">
          <mxGeometry y="70" width="560" height="20" as="geometry" />
        </mxCell>
        <mxCell id="04z2D7Yg83SwF_cILFOy-12" value="Log in--連結視窗" style="rounded=0;whiteSpace=wrap;html=1;" vertex="1" parent="zkfFHV4jXpPFQw0GAbJ--0">
          <mxGeometry y="90" width="560" height="20" as="geometry" />
        </mxCell>
        <mxCell id="04z2D7Yg83SwF_cILFOy-30" value="" style="group" vertex="1" connectable="0" parent="zkfFHV4jXpPFQw0GAbJ--0">
          <mxGeometry y="110" width="560" height="81" as="geometry" />
        </mxCell>
        <mxCell id="04z2D7Yg83SwF_cILFOy-40" value="新手操作手冊--連結視窗" style="rounded=0;whiteSpace=wrap;html=1;fillColor=none;gradientColor=none;" vertex="1" parent="04z2D7Yg83SwF_cILFOy-30">
          <mxGeometry x="470" width="90" height="30" as="geometry" />
        </mxCell>
        <mxCell id="04z2D7Yg83SwF_cILFOy-29" value="註冊--連結視窗" style="rounded=0;whiteSpace=wrap;html=1;fillColor=none;gradientColor=none;" vertex="1" parent="04z2D7Yg83SwF_cILFOy-30">
          <mxGeometry x="380" width="90" height="30" as="geometry" />
        </mxCell>
        <mxCell id="04z2D7Yg83SwF_cILFOy-26" value="" style="group" vertex="1" connectable="0" parent="04z2D7Yg83SwF_cILFOy-30">
          <mxGeometry width="270" height="81" as="geometry" />
        </mxCell>
        <mxCell id="04z2D7Yg83SwF_cILFOy-24" value="" style="group" vertex="1" connectable="0" parent="04z2D7Yg83SwF_cILFOy-26">
          <mxGeometry y="31" width="270" height="50" as="geometry" />
        </mxCell>
        <mxCell id="04z2D7Yg83SwF_cILFOy-18" value="github帳號登入--連結網頁" style="rounded=1;whiteSpace=wrap;html=1;" vertex="1" parent="04z2D7Yg83SwF_cILFOy-24">
          <mxGeometry width="90" height="50" as="geometry" />
        </mxCell>
        <mxCell id="04z2D7Yg83SwF_cILFOy-17" value="facebook帳號登入--連結網頁" style="rounded=1;whiteSpace=wrap;html=1;" vertex="1" parent="04z2D7Yg83SwF_cILFOy-24">
          <mxGeometry x="90" width="90" height="50" as="geometry" />
        </mxCell>
        <mxCell id="04z2D7Yg83SwF_cILFOy-16" value="google帳號登入--連結網頁" style="rounded=1;whiteSpace=wrap;html=1;" vertex="1" parent="04z2D7Yg83SwF_cILFOy-24">
          <mxGeometry x="180" width="90" height="50" as="geometry" />
        </mxCell>
        <mxCell id="04z2D7Yg83SwF_cILFOy-23" value="其他登入方式" style="rounded=0;whiteSpace=wrap;html=1;fillColor=none;gradientColor=none;" vertex="1" parent="04z2D7Yg83SwF_cILFOy-26">
          <mxGeometry width="270" height="30" as="geometry" />
        </mxCell>
        <mxCell id="04z2D7Yg83SwF_cILFOy-28" value="訪客登入--連結視窗" style="rounded=0;whiteSpace=wrap;html=1;fillColor=none;gradientColor=none;" vertex="1" parent="04z2D7Yg83SwF_cILFOy-30">
          <mxGeometry x="270" width="110" height="30" as="geometry" />
        </mxCell>
        <mxCell id="04z2D7Yg83SwF_cILFOy-139" value="註冊" style="swimlane;fontStyle=0;align=center;verticalAlign=middle;childLayout=stackLayout;horizontal=1;startSize=30;horizontalStack=0;resizeParent=1;resizeLast=0;collapsible=1;marginBottom=0;rounded=0;shadow=0;strokeWidth=1;fontSize=20;" vertex="1" parent="WIyWlLk6GJQsqaUBKTNV-1">
          <mxGeometry x="1830" y="2080" width="110" height="60" as="geometry">
            <mxRectangle x="1830" y="2080" width="130" height="26" as="alternateBounds" />
          </mxGeometry>
        </mxCell>
        <mxCell id="04z2D7Yg83SwF_cILFOy-140" value="&lt;span&gt;&lt;font style=&quot;font-size: 12px&quot;&gt;email驗證(devise)&lt;/font&gt;&lt;/span&gt;" style="text;html=1;align=center;verticalAlign=middle;resizable=0;points=[];autosize=1;fontSize=20;strokeColor=#000000;" vertex="1" parent="04z2D7Yg83SwF_cILFOy-139">
          <mxGeometry y="30" width="110" height="30" as="geometry" />
        </mxCell>
        <mxCell id="04z2D7Yg83SwF_cILFOy-145" value="訪客" style="swimlane;fontStyle=0;align=center;verticalAlign=middle;childLayout=stackLayout;horizontal=1;startSize=30;horizontalStack=0;resizeParent=1;resizeLast=0;collapsible=1;marginBottom=0;rounded=0;shadow=0;strokeWidth=1;fontSize=20;" vertex="1" parent="WIyWlLk6GJQsqaUBKTNV-1">
          <mxGeometry x="1830" y="2150" width="230" height="90" as="geometry">
            <mxRectangle x="1830" y="2150" width="130" height="26" as="alternateBounds" />
          </mxGeometry>
        </mxCell>
        <mxCell id="04z2D7Yg83SwF_cILFOy-149" value="&lt;span&gt;&lt;font style=&quot;font-size: 16px&quot;&gt;訪客(共用帳號)&lt;/font&gt;&lt;/span&gt;" style="rounded=0;whiteSpace=wrap;html=1;strokeColor=#000000;fillColor=none;gradientColor=none;fontSize=20;" vertex="1" parent="04z2D7Yg83SwF_cILFOy-145">
          <mxGeometry y="30" width="230" height="30" as="geometry" />
        </mxCell>
        <mxCell id="04z2D7Yg83SwF_cILFOy-151" value="&lt;span&gt;&lt;font style=&quot;font-size: 16px&quot;&gt;評審(專用帳號*3 建Demo資料)&lt;/font&gt;&lt;/span&gt;" style="rounded=0;whiteSpace=wrap;html=1;strokeColor=#000000;fillColor=none;gradientColor=none;fontSize=20;" vertex="1" parent="04z2D7Yg83SwF_cILFOy-145">
          <mxGeometry y="60" width="230" height="30" as="geometry" />
        </mxCell>
        <mxCell id="04z2D7Yg83SwF_cILFOy-135" value="其他登入方式" style="swimlane;fontStyle=0;align=center;verticalAlign=middle;childLayout=stackLayout;horizontal=1;startSize=30;horizontalStack=0;resizeParent=1;resizeLast=0;collapsible=1;marginBottom=0;rounded=0;shadow=0;strokeWidth=1;fontSize=20;" vertex="1" parent="WIyWlLk6GJQsqaUBKTNV-1">
          <mxGeometry x="1830" y="2260" width="140" height="120" as="geometry">
            <mxRectangle x="1830" y="2260" width="140" height="26" as="alternateBounds" />
          </mxGeometry>
        </mxCell>
        <mxCell id="04z2D7Yg83SwF_cILFOy-136" value="&lt;font style=&quot;font-size: 20px&quot;&gt;github&lt;/font&gt;" style="whiteSpace=wrap;html=1;strokeColor=#000000;fillColor=none;gradientColor=none;fontSize=20;" vertex="1" parent="04z2D7Yg83SwF_cILFOy-135">
          <mxGeometry y="30" width="140" height="30" as="geometry" />
        </mxCell>
        <mxCell id="04z2D7Yg83SwF_cILFOy-138" value="&lt;font style=&quot;font-size: 20px&quot;&gt;facebook&lt;/font&gt;" style="whiteSpace=wrap;html=1;strokeColor=#000000;fillColor=none;gradientColor=none;fontSize=20;" vertex="1" parent="04z2D7Yg83SwF_cILFOy-135">
          <mxGeometry y="60" width="140" height="30" as="geometry" />
        </mxCell>
        <mxCell id="04z2D7Yg83SwF_cILFOy-137" value="&lt;font style=&quot;font-size: 20px&quot;&gt;google&lt;/font&gt;" style="whiteSpace=wrap;html=1;strokeColor=#000000;fillColor=none;gradientColor=none;fontSize=20;" vertex="1" parent="04z2D7Yg83SwF_cILFOy-135">
          <mxGeometry y="90" width="140" height="30" as="geometry" />
        </mxCell>
        <mxCell id="04z2D7Yg83SwF_cILFOy-168" value="workspaces" style="swimlane;fontStyle=0;align=center;verticalAlign=middle;childLayout=stackLayout;horizontal=1;startSize=30;horizontalStack=0;resizeParent=1;resizeLast=0;collapsible=1;marginBottom=0;rounded=0;shadow=0;strokeWidth=1;fontSize=20;" vertex="1" parent="WIyWlLk6GJQsqaUBKTNV-1">
          <mxGeometry x="1580" y="1560" width="250" height="180" as="geometry">
            <mxRectangle x="1500" y="2110" width="160" height="26" as="alternateBounds" />
          </mxGeometry>
        </mxCell>
        <mxCell id="04z2D7Yg83SwF_cILFOy-110" value="使用者登入頁面" style="swimlane;fontStyle=2;align=center;verticalAlign=top;childLayout=stackLayout;horizontal=1;startSize=30;horizontalStack=0;resizeParent=1;resizeLast=0;collapsible=1;marginBottom=0;rounded=0;shadow=0;strokeWidth=1;" vertex="1" parent="WIyWlLk6GJQsqaUBKTNV-1">
          <mxGeometry x="1460" y="3310" width="560" height="191" as="geometry">
            <mxRectangle x="1500" y="2110" width="160" height="26" as="alternateBounds" />
          </mxGeometry>
        </mxCell>
        <mxCell id="04z2D7Yg83SwF_cILFOy-129" value="使用者" style="swimlane;fontStyle=0;align=center;verticalAlign=middle;childLayout=stackLayout;horizontal=1;startSize=30;horizontalStack=0;resizeParent=1;resizeLast=0;collapsible=1;marginBottom=0;rounded=0;shadow=0;strokeWidth=1;fontSize=20;" vertex="1" parent="WIyWlLk6GJQsqaUBKTNV-1">
          <mxGeometry x="1620" y="2660" width="250" height="180" as="geometry">
            <mxRectangle x="1500" y="2110" width="160" height="26" as="alternateBounds" />
          </mxGeometry>
        </mxCell>
        <mxCell id="04z2D7Yg83SwF_cILFOy-95" value="登入畫面" style="swimlane;fontStyle=0;align=center;verticalAlign=middle;childLayout=stackLayout;horizontal=1;startSize=30;horizontalStack=0;resizeParent=1;resizeLast=0;collapsible=1;marginBottom=0;rounded=0;shadow=0;strokeWidth=1;fontSize=20;" vertex="1" parent="WIyWlLk6GJQsqaUBKTNV-1">
          <mxGeometry x="1520" y="2070" width="250" height="180" as="geometry">
            <mxRectangle x="1520" y="2070" width="160" height="26" as="alternateBounds" />
          </mxGeometry>
        </mxCell>
        <mxCell id="04z2D7Yg83SwF_cILFOy-122" value="log in" style="text;html=1;align=center;verticalAlign=middle;resizable=0;points=[];autosize=1;fontSize=20;strokeColor=#000000;" vertex="1" parent="04z2D7Yg83SwF_cILFOy-95">
          <mxGeometry y="30" width="250" height="30" as="geometry" />
        </mxCell>
        <mxCell id="04z2D7Yg83SwF_cILFOy-121" value="註冊" style="text;html=1;align=center;verticalAlign=middle;resizable=0;points=[];autosize=1;fontSize=20;strokeColor=#000000;" vertex="1" parent="04z2D7Yg83SwF_cILFOy-95">
          <mxGeometry y="60" width="250" height="30" as="geometry" />
        </mxCell>
        <mxCell id="04z2D7Yg83SwF_cILFOy-112" value="訪客" style="text;html=1;align=center;verticalAlign=middle;resizable=0;points=[];autosize=1;fontSize=20;strokeColor=#000000;" vertex="1" parent="04z2D7Yg83SwF_cILFOy-95">
          <mxGeometry y="90" width="250" height="30" as="geometry" />
        </mxCell>
        <mxCell id="04z2D7Yg83SwF_cILFOy-123" value="新手操作" style="text;html=1;align=center;verticalAlign=middle;resizable=0;points=[];autosize=1;fontSize=20;strokeColor=#000000;" vertex="1" parent="04z2D7Yg83SwF_cILFOy-95">
          <mxGeometry y="120" width="250" height="30" as="geometry" />
        </mxCell>
        <mxCell id="04z2D7Yg83SwF_cILFOy-131" value="其他登入方式" style="text;html=1;align=center;verticalAlign=middle;resizable=0;points=[];autosize=1;fontSize=20;strokeColor=#000000;" vertex="1" parent="04z2D7Yg83SwF_cILFOy-95">
          <mxGeometry y="150" width="250" height="30" as="geometry" />
        </mxCell>
        <mxCell id="04z2D7Yg83SwF_cILFOy-147" style="edgeStyle=orthogonalEdgeStyle;rounded=0;orthogonalLoop=1;jettySize=auto;html=1;entryX=0;entryY=0.75;entryDx=0;entryDy=0;fontSize=20;" edge="1" parent="WIyWlLk6GJQsqaUBKTNV-1" source="04z2D7Yg83SwF_cILFOy-131" target="04z2D7Yg83SwF_cILFOy-135">
          <mxGeometry relative="1" as="geometry" />
        </mxCell>
        <mxCell id="04z2D7Yg83SwF_cILFOy-148" style="edgeStyle=orthogonalEdgeStyle;rounded=0;orthogonalLoop=1;jettySize=auto;html=1;entryX=0;entryY=0.5;entryDx=0;entryDy=0;fontSize=20;" edge="1" parent="WIyWlLk6GJQsqaUBKTNV-1" source="04z2D7Yg83SwF_cILFOy-121" target="04z2D7Yg83SwF_cILFOy-139">
          <mxGeometry relative="1" as="geometry" />
        </mxCell>
        <mxCell id="04z2D7Yg83SwF_cILFOy-156" style="edgeStyle=orthogonalEdgeStyle;rounded=0;orthogonalLoop=1;jettySize=auto;html=1;entryX=0;entryY=0.5;entryDx=0;entryDy=0;fontSize=20;" edge="1" parent="WIyWlLk6GJQsqaUBKTNV-1" source="04z2D7Yg83SwF_cILFOy-112" target="04z2D7Yg83SwF_cILFOy-145">
          <mxGeometry relative="1" as="geometry" />
        </mxCell>
        <mxCell id="04z2D7Yg83SwF_cILFOy-167" style="edgeStyle=orthogonalEdgeStyle;rounded=0;orthogonalLoop=1;jettySize=auto;html=1;entryX=1;entryY=0.048;entryDx=0;entryDy=0;entryPerimeter=0;fontSize=20;" edge="1" parent="WIyWlLk6GJQsqaUBKTNV-1" source="04z2D7Yg83SwF_cILFOy-122" target="04z2D7Yg83SwF_cILFOy-157">
          <mxGeometry relative="1" as="geometry" />
        </mxCell>
        <mxCell id="04z2D7Yg83SwF_cILFOy-176" style="edgeStyle=orthogonalEdgeStyle;rounded=0;orthogonalLoop=1;jettySize=auto;html=1;fontSize=20;entryX=-0.001;entryY=0.051;entryDx=0;entryDy=0;entryPerimeter=0;" edge="1" parent="WIyWlLk6GJQsqaUBKTNV-1" source="04z2D7Yg83SwF_cILFOy-161" target="04z2D7Yg83SwF_cILFOy-168">
          <mxGeometry relative="1" as="geometry">
            <mxPoint x="1519.9999999999995" y="1660" as="targetPoint" />
          </mxGeometry>
        </mxCell>
        <mxCell id="04z2D7Yg83SwF_cILFOy-192" style="edgeStyle=orthogonalEdgeStyle;rounded=0;orthogonalLoop=1;jettySize=auto;html=1;fontSize=20;entryX=1;entryY=0.033;entryDx=0;entryDy=0;entryPerimeter=0;" edge="1" parent="WIyWlLk6GJQsqaUBKTNV-1" source="04z2D7Yg83SwF_cILFOy-188" target="04z2D7Yg83SwF_cILFOy-170">
          <mxGeometry relative="1" as="geometry">
            <mxPoint x="1210" y="1590" as="targetPoint" />
          </mxGeometry>
        </mxCell>
        <mxCell id="04z2D7Yg83SwF_cILFOy-193" style="edgeStyle=orthogonalEdgeStyle;rounded=0;orthogonalLoop=1;jettySize=auto;html=1;entryX=0.997;entryY=0.167;entryDx=0;entryDy=0;entryPerimeter=0;fontSize=20;" edge="1" parent="WIyWlLk6GJQsqaUBKTNV-1" source="04z2D7Yg83SwF_cILFOy-160" target="04z2D7Yg83SwF_cILFOy-169">
          <mxGeometry relative="1" as="geometry" />
        </mxCell>
      </root>
    </mxGraphModel>
  </diagram>
</mxfile>
